<?xml version="1.0" encoding="UTF-8"?>
<svg version="1.1" viewBox="0 0 2048 2048" width="512" height="512" xmlns="http://www.w3.org/2000/svg">
<path transform="translate(417,486)" d="m0 0h45l40 2 46 4 44 6 38 7 40 9 36 10 46 15 33 13 25 11 29 14 21 11 19 11 21 13 19 13 14 10 13 10 16 13 15 13 13 12 6 7v1130l-5-2-9-8-19-14-20-14-20-13-25-15-29-16-30-15-36-16-37-14-36-12-42-12-38-9-41-8-49-7-54-5-43-2h-55l-38 2-45 4-44 6-34 6-28 6-44 11-20 6-3-1v-1146l5-3 29-9 30-8 46-10 43-7 33-4 36-3zm4 146-38 2-34 3-34 4-34 5-12 3-8 6-5 6-3 7-1 9 4 13 5 6 8 5 6 2h9l59-8 44-4 14-1 27-1h56l35 2 40 4 38 6 38 8 37 10 41 14 22 9 27 12 22 11 20 11 28 17 23 16 13 7 4 1h9l8-3 6-4 6-7 3-8v-12l-4-9-7-8-14-10-23-15-22-13-18-10-23-12-23-11-31-13-33-12-40-12-33-8-35-7-35-5-41-4-37-2zm1 245-50 3-40 4-44 6-18 4-8 5-6 7-3 7-1 8 3 12 6 8 9 6 4 1h15l51-7 41-4 33-2h79l30 2 38 4 38 6 38 8 33 9 36 12 21 8 30 13 19 9 22 12 16 9 21 13 27 18 6 3 5 1h8l10-4 8-7 4-8 1-3v-12l-4-9-7-8-20-14-24-15-24-14-28-15-23-11-28-12-35-13-35-11-44-11-42-8-38-5-31-3-39-2zm2 246-52 3-49 5-41 6-12 3-8 5-6 7-3 7-1 9 4 13 6 7 6 4 6 2h13l50-7 41-4 34-2 24-1h37l40 2 42 4 39 6 35 7 38 10 36 12 29 11 27 12 34 17 27 16 16 10 16 11 13 8 6 2h11l9-4 8-7 4-7 1-4v-12l-6-12-9-8-27-18-28-17-22-12-29-15-32-14-37-14-38-12-40-10-34-7-33-5-37-4-47-3zm-12 246-45 3-46 5-41 6-11 3-6 4-5 5-5 10-1 8 3 12 9 10 8 4 3 1h10l42-6 36-4 42-3 27-1h48l37 2 40 4 39 6 38 8 34 9 37 12 30 12 27 12 32 16 24 14 19 12 21 14 9 5 3 1h13l9-4 6-5 6-12v-13l-5-10-8-8-30-20-25-15-21-12-15-8-23-11-30-13-35-13-28-9-29-8-40-9-43-7-46-5-35-2z" fill="#EC8131"/>
<path transform="translate(1675,488)" d="m0 0 24 2 44 5 37 6 43 9 42 11 29 9 2 2v1147l-7-1-35-10-34-8-48-9-42-6-41-4-32-2-24-1h-55l-52 3-40 4-42 6-37 7-40 9-37 10-46 15-34 13-30 13-34 16-30 16-25 15-22 14-20 14-19 14-16 13h-2v-1131l9-9 8-7 7-7 11-9 16-13 18-13 17-12 22-14 17-10 21-12 36-18 30-13 25-10 4-1 1 631 3 10 11 20 14 24 15 26 44 77 15 26 60 105 10 17 9 8 9 3h9l8-3 6-4 7-9 18-34 11-19 7-14 13-23 18-34 6-10 7-14 9-16 15-28 9-16 15-28 13-23 11-21 7-14 1-5z" fill="#E25333"/>
<path transform="translate(152,533)" d="m0 0h1l1 88 1 466 1 132 1 5 6-1 1 7 3-9-1-4 2-8 2-2 3 1v2l2 3v6l2 4h3l1 4-1 3h2l2 7 4 7 2 1 1-2 2 1 1-3v2h2v-2l5 2 2 3 5 2v5l-3-1v6l-1 2 4-1 1-5 7 1 2-2-1-7 5-3 5-1 2-2 4 1 1 1 2 1-2 3h2v2l10 2v-2h9l2 1v3l5 2 2 1v2l4-1 2 3-2 3 4-2 5-3h5l-1-4 6 2v2h2v2l5-1 2-2h6l2-4h5l4-3 4-1 1 2-2 1 1 2h4l1-4h9v-2h2l1-2v3 5h5v-2l5-1v-2l6-5 3 1-2 4 5 1 5-1 7 2 6-1h9l7 1 7-1 5-4 4 1 4 2 2-4 4-1-2 5v2h4l1-6 5-1 3 7 5-5 5-1 2 3v3l5-1v-2l10-4 6-2 1 2h6 3l4-2 4-3 5 4-1 5h-3v3l8-4h3l-1-5 6-1 9 3 9 1v-2l11-1 1 3 2 1v2l-2 1 1 3h6l-2-5-2-2h6l3 2 8-1 3 2v2l7-1v3l11-1 6 3h9l4 3 1 3 2-1 3-1h15l10 3 2 4 12-1 7-2 2 1-2 5 6 3v-5h6l2 4h3v2l12-1v3h11l2 1v2l6-1h11l8 3 14 2 3 3h7l6 2 9 1 5 4 4 4h6l3 2v2l6 1 3-1h6l2 1 1-2 5 2v-2l4-1 2 1 1 2h6l1-3-5-1-4-4-4-2 1-8-1-4 5-1v-2l5-2v2h3v2l12 3 8 5 17 8 3 3 10 6v2l7 2v2l4 1v2l8 1h4l3-1 2 1v-2h8v2l10-2 3-3 4-1 2-6 5-5h2l2-6 1-6-1-5 1-5-7-14-2-6h-2l-2-6 5 1 7 2 3 7-2-5v-3l7-1 1 3 4 2 5 1h6l1-6 3-1 1 3 5-1 3-5 4-2v2h2l1-3 3-2 2-4-1-3-2-1 1-4 2-5 3-6 6-3 1-3 3-1-4-2-1 5h-2l-1-3 2-5 3-4 1-6 2-2 2-1 1-5h3l1-2 2 5-1 15v8l2 2 1 17 2 28v10l1 8v9l1 6v8l4 10 1-493 1-123h1v1127l-5-2-9-8-19-14-20-14-20-13-25-15-29-16-30-15-36-16-37-14-36-12-42-12-38-9-41-8-49-7-54-5-43-2h-55l-38 2-45 4-44 6-34 6-28 6-44 11-20 6-3-1zm260 836-45 3-46 5-41 6-11 3-6 4-5 5-5 10-1 8 3 12 9 10 8 4 3 1h10l42-6 36-4 42-3 27-1h48l37 2 40 4 39 6 38 8 34 9 37 12 30 12 27 12 32 16 24 14 19 12 21 14 9 5 3 1h13l9-4 6-5 6-12v-13l-5-10-8-8-30-20-25-15-21-12-15-8-23-11-30-13-35-13-28-9-29-8-40-9-43-7-46-5-35-2z" fill="#E25333"/>
<path transform="translate(1480,226)" d="m0 0 27 1 28 4 24 6 20 7 17 7 19 10 4 3v193l-5-2-54-39-14-10 5 4 13 10 14 10 18 13 17 12 6 4 1 95v488l-1 121-14 27-13 23-13 25-13 23-11 21-13 23-12 23-12 22-16 29-13 24h-2l-16-28-14-24-13-23-14-24-32-56-30-52-13-23-6-11-1-897 5-4 21-11 20-8 26-8 24-5 16-2zm10 140m3 2m1 1m2 1m1 1m1 1m2 1m1 1m2 1m1 1m1 1m2 1m3 2m1 1m1 1m2 1m1 1m1 1m2 1m1 1m2 1m1 1m1 1m2 1m1 1 1 2 2-1zm3 2 1 2 2-1zm3 2m1 1 2 3 2-1zm4 3 1 2 2-1zm3 2 2 3 2-1z" fill="#EB8031"/>
<path transform="translate(1675,488)" d="m0 0 24 2 44 5 37 6 43 9 42 11 29 9 2 3-1 581-1 313h-1l-1-53-2-5 1-4-2-4v-9-3l-2-17-1-46v-13l-2-29-1-24-2-9-1-13-7-2-4-1-2 5h-2l-1 2-6 6h-7v5l-2 1-2-1-1 5-2 3-1-3-5 1-3 5-5 4-2 3-7 1-1 3-11 2 1 7-5 5-9 5-2 3h-3v2h-2v5l-5 1v2l-4-1v5l-5 3-4 1-3-2v2l-6 3-3-1v2l-9 2-5 4 1 2h3v3h5v1h-6v2l-5 2-7 4-16 4h-8l2-5 3-2-2-4-3-1 1-5 3-1 1-2h-6l-1-4-5 2-1 2h-2v2l-3 1 3 2-4 2-3-2-10-1-1 4-2-1-1 2-1-1-1 4-7 2v-2h-2l-1 3h-4l-1 5-2 4-6 3v2h-3l2-7 3-3-1-2h-4v9l-5 4v-2l-11 3-3 3h-3l-1 2-4 1v8l-4 3-7 1-2-2 1-16 3-13 2-1 2-9 1-7 2-1 2-5h2v-2h-3l-1 4h-3v6l-6 2 2-6 10-18 15-28 13-23 11-21 7-14 1-5z" fill="#EC8131"/>
<path transform="translate(1291,541)" d="m0 0h2l1 631 3 10 11 20 14 24 15 26 16 28 7 12v2h-3v-2h-2v-2h-2l-7-10-6-11-7-8-1-5h-2l-9-14-3-6-2-1v-2h-2l-6-12v-2l-4-2h-2l-1 5 3 8 3 6 2 1 4 12 2 5-1 2h-2l5 6-2 1-1 2-3 1v5 3l-1 3-4 4h-6l-3-8-4-4-2-5v-3h-2v-2l-6 1-4-3h-2v2l3 1h-9l-6-3-1-3-4-2-4-3-1-5 4 1 1-2-6-1v-2h-2l1 5-5-1-5-2h-5v-5l-7-2-7 3-3 1-1 3h-2v2h-3l-1 4-8 4-4-1v-2l-8 2-3 1 1 4h-4l1 3 2 1 1-2 2 1-1 3-2 2-3 1-9-1v2h-6l-3-1v3 3l-11-1h-2l-2-6-8-3 1-4h-2l-2-5-4-1-3 3-4 1 1 6-1 2-6 1v2l-4-1v-4l-4-1-2 4-4-2v-6l-3-1-1-1-1 3-9-1-2-4-5-1-5 6h-4l-1-4h-3v-2h-2l-1 6-4-5-1-3-1 11-2 2-1-4-3-1v-5l1-3-3-2v9l-1 4v11l-1 10v11 4 2h-2l-2 4-1-3-1-40-1-531-1-39 9-9 8-7 7-7 11-9 16-13 18-13 17-12 22-14 17-10 21-12 36-18 30-13 25-10z" fill="#EC8131"/>
<path transform="translate(1570,1215)" d="m0 0 1 2h3l1 4h-2v12l-1 3h-2v8l-4 8-3 8-2 3h-2l-2 4-3 7-3 9-3 5-2 10-16 30-12 22-16 29-13 24h-2l-16-28-14-24-13-23-2-3 1-11-4-1v-3l-3-1-2-7-2-1v-2h2l-1-5-2-8-5-10v-3h-2l-3-6 1-4 2 3 6 10 6 4v2l4 1 2 5h2l-2-7-2-4 9 2 1 7 2 1-1-3 2-3-1-3 1-2h3l-4-6v-2l4-1v-11l2-4v-3l4-3 2-2 6-2 1-4-3-1 4-3 5-2 5-1 1 6v4l3-1v-2l6-3 2-2 4 2-1 3 4 1 1-14 4-1 7 8h7l2 2 2-4 2 1 1 3 5 1 3-1 5 5 2 3-2 2-1 4 7-3 2 1v-2h2v-5h2l3-3h2l1-4 4-4 1-3h3v-3l-2 1 2-5z" fill="#E25332"/>
<path transform="translate(425,1190)" d="m0 0 7 3 3-2 7 1-3 2-2 2 1 3-5 1v2l-4 2-1-1-7 1h-3l-7-1-4-3v-2h3v-2h2v-2l5-2 7-1z" fill="#E25332"/>
<path transform="translate(472,1190)" d="m0 0 7 3 4 5-6 3-6-2 1-3h-2l-5 4v-3h-3l1-3z" fill="#E25333"/>
<path transform="translate(248,1251)" d="m0 0 1 2h6l3 1 2 2 2 1v2l-7 2-4-1-3-3v2l-4-1z" fill="#EC8131"/>
<path transform="translate(1613,1290)" d="m0 0 1 3-3 2zm-3 5 1 2 3 1v3l1 4-6 3h-3-2l2-5z" fill="#EC8233"/>
<path transform="translate(1314,1271)" d="m0 0 4 2 1 7 2 1h-4l-6 1 1-8z" fill="#EC8131"/>
<path transform="translate(1444,1322)" d="m0 0 3 3 2 5 3 8-2 1-8-14v-2z" fill="#EC8335"/>
<path transform="translate(1288,1203)" d="m0 0 1 2 4 2 3-2 1 5h2l-1 4-3-1-1-4-6-2z" fill="#E25333"/>
<path transform="translate(394,1194)" d="m0 0 1 2-1 3h-2v2l-5-2-2-3 8-1z" fill="#E25333"/>
<path transform="translate(234,1253)" d="m0 0 1 4-3 3-3-4-4 1 1-3h7z" fill="#EC8131"/>
<path transform="translate(1289,1195)" d="m0 0h2v2l4 2 2 6-3-2v-2l-3 1z" fill="#E25333"/>
</svg>
